<svg width="32" height="33" viewBox="0 0 32 33" fill="none" xmlns="http://www.w3.org/2000/svg">
<path d="M0.291992 16.8887C0.291666 19.9047 1.16976 22.8569 2.8211 25.3916L1.34887 29.584C0.760803 31.2162 1.64496 32.0872 3.28991 31.5052L7.52565 30.048C9.60145 31.3697 11.9599 32.1943 14.4139 32.4564C16.8678 32.7185 19.3498 32.411 21.6627 31.5581C23.9756 30.7052 26.0558 29.3305 27.7383 27.5431C29.4208 25.7557 30.6592 23.6047 31.3553 21.2609C32.0514 18.9171 32.186 16.445 31.7484 14.0407C31.3108 11.6365 30.313 9.36627 28.8343 7.41025C27.3557 5.45422 25.4367 3.86624 23.2298 2.7723C21.0229 1.67837 18.5887 1.1086 16.1205 1.10822C11.917 1.15415 7.90051 2.83508 4.93879 5.78781C1.97708 8.74055 0.307938 12.728 0.291992 16.8887Z" fill="url(#paint0_radial_3975_155671)"/>
<path d="M8.169e-06 16.303C-0.000318467 19.319 0.877775 22.2711 2.52912 24.8058L1.05689 29.0186C0.468818 30.6467 1.35298 31.5218 2.99793 30.9398L7.23367 29.4826C10.1993 31.3912 13.7232 32.2666 17.2479 31.9704C20.7727 31.6742 24.097 30.2232 26.6951 27.8471C29.2931 25.4709 31.0166 22.3052 31.5927 18.8507C32.1689 15.3962 31.5649 11.8502 29.8763 8.77362C28.1877 5.69704 25.5109 3.26553 22.2694 1.86375C19.0279 0.461973 15.4066 0.169948 11.9786 1.03388C8.55055 1.8978 5.51139 3.86836 3.34189 6.63381C1.1724 9.39927 -0.00357606 12.8017 8.169e-06 16.303Z" fill="url(#paint1_radial_3975_155671)"/>
<path d="M30.5918 15.6639C30.5885 17.6637 30.1872 19.6433 29.4108 21.4895C28.6344 23.3357 27.498 25.0125 26.0667 26.4239C24.6353 27.8353 22.937 28.9538 21.0688 29.7153C19.2006 30.4769 17.1991 30.8667 15.1786 30.8624C12.2111 30.8886 9.30311 30.0383 6.82639 28.4202C6.75728 28.3749 6.67443 28.3548 6.59198 28.3633H6.41515L2.17941 29.8326C1.9385 29.94 1.6786 29.9995 1.41451 30.0077H1.35693C1.35968 30.1514 1.40083 30.2918 1.47619 30.4147C1.54346 30.5007 1.63258 30.5675 1.73445 30.6082C1.83632 30.649 1.94729 30.6623 2.05604 30.6467C2.32013 30.6385 2.58003 30.5791 2.82094 30.4717L7.0649 29.0186H7.24174C7.361 29.0186 7.41857 29.0186 7.47614 29.0756C10.7019 31.1718 14.6054 31.9927 18.4136 31.3757C22.2218 30.7587 25.6571 28.7488 28.0393 25.744C30.4214 22.7392 31.5767 18.9586 31.2764 15.1507C30.9761 11.3429 29.2421 7.78548 26.4177 5.18292C29.11 8.02134 30.6046 11.7707 30.5959 15.6639" fill="url(#paint2_linear_3975_155671)"/>
<path d="M15.8242 11.6462C17.5775 11.6462 18.9989 10.2393 18.9989 8.5039C18.9989 6.76847 17.5775 5.36163 15.8242 5.36163C14.0708 5.36163 12.6494 6.76847 12.6494 8.5039C12.6494 10.2393 14.0708 11.6462 15.8242 11.6462Z" fill="#098544"/>
<path d="M12.5298 16.3638V24.2235C12.5298 25.0569 12.8643 25.8561 13.4596 26.4454C14.055 27.0347 14.8625 27.3658 15.7045 27.3658C16.5465 27.3658 17.354 27.0347 17.9494 26.4454C18.5448 25.8561 18.8793 25.0569 18.8793 24.2235V16.3638C18.8793 15.5304 18.5448 14.7311 17.9494 14.1418C17.354 13.5526 16.5465 13.2215 15.7045 13.2215C14.8625 13.2215 14.055 13.5526 13.4596 14.1418C12.8643 14.7311 12.5298 15.5304 12.5298 16.3638Z" fill="url(#paint3_radial_3975_155671)"/>
<path d="M1.58789 16.3028C1.59243 18.8839 2.30296 21.4157 3.64408 23.6293C3.76663 23.8501 3.84061 24.0941 3.86116 24.3453C3.88171 24.5964 3.84838 24.849 3.76333 25.0865C3.52893 25.8435 3.3521 26.2506 2.8216 27.8217C2.29111 29.3928 3.05601 29.2178 3.70576 28.6358C4.35552 28.0537 6.46928 26.0145 6.4117 25.5505C6.23487 18.7368 9.17522 12.5662 14.7639 9.53794C18.2824 7.66994 22.3917 7.21234 26.2416 8.25987C27.537 8.60992 27.2984 7.85284 26.9489 7.44581C25.1047 5.1589 22.5869 3.4971 19.7449 2.69118C16.903 1.88527 13.8781 1.97523 11.0902 2.94858C8.30225 3.92193 5.88974 5.73036 4.18764 8.12273C2.48554 10.5151 1.57834 13.3727 1.592 16.2987" fill="url(#paint4_radial_3975_155671)"/>
<defs>
<radialGradient id="paint0_radial_3975_155671" cx="0" cy="0" r="1" gradientUnits="userSpaceOnUse" gradientTransform="translate(14.2124 16.034) scale(18.0327 17.8482)">
<stop offset="0.59" stop-color="#010101"/>
<stop offset="1" stop-color="white" stop-opacity="0"/>
</radialGradient>
<radialGradient id="paint1_radial_3975_155671" cx="0" cy="0" r="1" gradientUnits="userSpaceOnUse" gradientTransform="translate(15.8532 16.2826) scale(15.8491 15.6869)">
<stop stop-color="#F6E619"/>
<stop offset="1" stop-color="#F7A421"/>
</radialGradient>
<linearGradient id="paint2_linear_3975_155671" x1="1.35693" y1="18.3422" x2="31.2415" y2="18.3422" gradientUnits="userSpaceOnUse">
<stop stop-color="#693117"/>
<stop offset="0.38" stop-color="#9F5D20"/>
<stop offset="0.8" stop-color="#DC9423"/>
<stop offset="1" stop-color="#F8AD22"/>
</linearGradient>
<radialGradient id="paint3_radial_3975_155671" cx="0" cy="0" r="1" gradientUnits="userSpaceOnUse" gradientTransform="translate(15.9307 16.5632) scale(5.52703 5.47048)">
<stop stop-color="#15A34C"/>
<stop offset="1" stop-color="#098544"/>
</radialGradient>
<radialGradient id="paint4_radial_3975_155671" cx="0" cy="0" r="1" gradientUnits="userSpaceOnUse" gradientTransform="translate(4.18691 6.88004) scale(23.2884 23.0501)">
<stop stop-color="white"/>
<stop offset="1" stop-color="white" stop-opacity="0"/>
</radialGradient>
</defs>
</svg>
